<svg width="75" height="75" viewBox="0 0 75 75" fill="none" xmlns="http://www.w3.org/2000/svg">
<g filter="url(#filter0_d_46937_354)">
<path d="M19.0464 52.0312C18.312 51.803 17.6464 51.4655 17.062 50.9655C14.6714 48.9249 14.8464 43.4749 14.8464 39.478C14.8464 35.4843 14.6714 30.0312 17.062 27.9937C19.2776 26.0968 20.8526 26.5937 24.9057 26.2718C28.9557 25.9499 37.5276 13.5905 44.1432 17.4968C45.6589 18.728 46.5495 20.5655 47.0745 23.3937" stroke="white" stroke-width="3" stroke-linecap="round" stroke-linejoin="round"/>
<path d="M47.7604 45.8362C47.6448 54.8143 46.9417 59.1862 44.1448 61.4612C41.0823 63.2706 37.6135 61.6081 34.3479 59.2456" stroke="white" stroke-width="3" stroke-linecap="round" stroke-linejoin="round"/>
<path opacity="0.4" d="M14.8489 64.8425L26.452 53.2394L47.7614 31.9269L64.8458 14.8425" stroke="white" stroke-width="3" stroke-linecap="round" stroke-linejoin="round"/>
</g>
<defs>
<filter id="filter0_d_46937_354" x="-4" y="0" width="83" height="83" filterUnits="userSpaceOnUse" color-interpolation-filters="sRGB">
<feFlood flood-opacity="0" result="BackgroundImageFix"/>
<feColorMatrix in="SourceAlpha" type="matrix" values="0 0 0 0 0 0 0 0 0 0 0 0 0 0 0 0 0 0 127 0" result="hardAlpha"/>
<feOffset dy="4"/>
<feGaussianBlur stdDeviation="2"/>
<feComposite in2="hardAlpha" operator="out"/>
<feColorMatrix type="matrix" values="0 0 0 0 0 0 0 0 0 0 0 0 0 0 0 0 0 0 0.25 0"/>
<feBlend mode="normal" in2="BackgroundImageFix" result="effect1_dropShadow_46937_354"/>
<feBlend mode="normal" in="SourceGraphic" in2="effect1_dropShadow_46937_354" result="shape"/>
</filter>
</defs>
</svg>
